<svg width="164" height="32" viewBox="0 0 164 32" fill="none" xmlns="http://www.w3.org/2000/svg">
<g filter="url(#filter0_d_0_280)">
<path d="M1 5C1 2.23858 3.23858 0 6 0H158C160.761 0 163 2.23858 163 5V23.918C163 26.6794 160.761 28.918 158 28.918H6C3.23857 28.918 1 26.6794 1 23.918V5Z" fill="#FBFCFE"/>
<path d="M6 0.25H158C160.623 0.250001 162.75 2.37665 162.75 5V23.918C162.75 26.5413 160.623 28.668 158 28.668H6C3.37665 28.668 1.25 26.5413 1.25 23.918V5C1.25 2.37665 3.37665 0.25 6 0.25Z" stroke="#DDE4F0" stroke-width="0.5"/>
</g>
<defs>
<filter id="filter0_d_0_280" x="0" y="0" width="164" height="31.918" filterUnits="userSpaceOnUse" color-interpolation-filters="sRGB">
<feFlood flood-opacity="0" result="BackgroundImageFix"/>
<feColorMatrix in="SourceAlpha" type="matrix" values="0 0 0 0 0 0 0 0 0 0 0 0 0 0 0 0 0 0 127 0" result="hardAlpha"/>
<feOffset dy="2"/>
<feGaussianBlur stdDeviation="0.5"/>
<feColorMatrix type="matrix" values="0 0 0 0 0.25098 0 0 0 0 0.282353 0 0 0 0 0.321569 0 0 0 0.05 0"/>
<feBlend mode="normal" in2="BackgroundImageFix" result="effect1_dropShadow_0_280"/>
<feBlend mode="normal" in="SourceGraphic" in2="effect1_dropShadow_0_280" result="shape"/>
</filter>
</defs>
</svg>
